<?xml version="1.0" encoding="UTF-8" standalone="no"?>
<!DOCTYPE svg PUBLIC "-//W3C//DTD SVG 1.1//EN" "http://www.w3.org/Graphics/SVG/1.1/DTD/svg11.dtd">
<svg width="100%" height="100%" viewBox="0 0 207 200" version="1.1" xmlns="http://www.w3.org/2000/svg" xmlns:xlink="http://www.w3.org/1999/xlink" xml:space="preserve" xmlns:serif="http://www.serif.com/" style="fill-rule:evenodd;clip-rule:evenodd;stroke-linejoin:round;stroke-miterlimit:2;">
    <g transform="matrix(1,0,0,1,-1272,-289)">
        <g transform="matrix(1,0,0,1,324,-337)">
            <path d="M1091,760L1155,766L1144,716L1101,718L1091,760Z" style="fill:rgb(187,26,34);"/>
        </g>
        <g transform="matrix(1,0,0,1,324,-337)">
            <path d="M948,663L984.5,706L979,797L948,663" style="fill:rgb(187,26,34);"/>
        </g>
        <g transform="matrix(1,0,0,1,324,-337)">
            <path d="M992,713L1079,762L986,826L992,713Z" style="fill:rgb(187,26,34);"/>
        </g>
        <g transform="matrix(1,0,0,1,324,-337)">
            <path d="M1011,820L1087,766L1146,776L1011,820Z" style="fill:rgb(187,26,34);"/>
        </g>
        <g transform="matrix(1,0,0,1,324,-337)">
            <path d="M1009,632L1027,626L1139,690L1144,707L1102,710L1024,667L1009,632Z" style="fill:rgb(187,26,34);"/>
        </g>
        <g transform="matrix(1,0,0,1,324,-337)">
            <path d="M952,649L1001,635L1017,667L986,699L952,649Z" style="fill:rgb(187,26,34);"/>
        </g>
        <g transform="matrix(1,0,0,1,324,-337)">
            <path d="M1024,674L995,704L1084,756L1094,716L1024,674Z" style="fill:rgb(187,26,34);"/>
        </g>
    </g>
</svg>
